<?xml version="1.0" encoding="UTF-8"?>
<svg version="1.1" xmlns="http://www.w3.org/2000/svg" width="534" height="547">
<path d="M0 0 C176.22 0 352.44 0 534 0 C534 180.51 534 361.02 534 547 C357.78 547 181.56 547 0 547 C0 366.49 0 185.98 0 0 Z " fill="#FEFEFE" transform="translate(0,0)"/>
<path d="M0 0 C49.42011568 -0.06864922 98.84022654 -0.1215202 148.26038051 -0.15319599 C154.0933462 -0.15694816 159.92631179 -0.16083112 165.75927734 -0.16479492 C166.92052801 -0.16558185 168.08177867 -0.16636878 169.27821875 -0.16717956 C188.08718754 -0.1802376 206.89612886 -0.20389365 225.70508134 -0.23145839 C245.00121001 -0.25950148 264.29732427 -0.27617394 283.59347248 -0.28226548 C295.50261376 -0.28638419 307.41167738 -0.2993983 319.32079476 -0.3237494 C327.48455108 -0.33959305 335.64826718 -0.34440346 343.81203777 -0.34050413 C348.52385212 -0.33858046 353.23553066 -0.34155349 357.94732094 -0.35761642 C362.26176439 -0.37221743 366.57598071 -0.37295104 370.89043462 -0.36269668 C372.45046354 -0.36142934 374.01050664 -0.36523321 375.57050765 -0.37464955 C392.82626277 -0.47274276 392.82626277 -0.47274276 399.0234375 4.68359375 C399.46945312 5.26238281 399.91546875 5.84117188 400.375 6.4375 C401.06722656 7.30181641 401.06722656 7.30181641 401.7734375 8.18359375 C404.50307291 12.22588822 405.26942949 15.16060269 405.4140625 20.078125 C405.45273437 21.23828125 405.49140625 22.3984375 405.53125 23.59375 C405.57765625 25.40359375 405.57765625 25.40359375 405.625 27.25 C405.66367187 28.47203125 405.70234375 29.6940625 405.7421875 30.953125 C405.83641804 33.96850226 405.91929631 36.9842304 406 40 C414.25 40.33 422.5 40.66 431 41 C431 40.67 431 40.34 431 40 C433.97 40 436.94 40 440 40 C440 40.66 440 41.32 440 42 C440.97453125 41.78214844 441.9490625 41.56429687 442.953125 41.33984375 C447.64045924 40.67914161 451.36608321 41.98858288 455.75 43.5625 C456.54494873 43.84134033 457.33989746 44.12018066 458.15893555 44.4074707 C469.5131762 48.50488566 483.96935166 55.4292658 490.37109375 66.3359375 C490.57863281 66.88507813 490.78617187 67.43421875 491 68 C491.66 68 492.32 68 493 68 C494.523761 70.03269717 495.89945985 72.04275493 497.25 74.1875 C497.65041504 74.82171875 498.05083008 75.4559375 498.46337891 76.109375 C507.59427636 90.85956824 511.46364273 105.15157435 511.41992188 122.48779297 C511.42839142 123.75470474 511.43686096 125.02161652 511.44558716 126.32691956 C511.46751831 129.75426485 511.47074907 133.18136791 511.46883965 136.60877371 C511.46871882 139.48426803 511.47732656 142.35971301 511.48561716 145.23519337 C511.50474189 152.01880925 511.50777239 158.80230208 511.50097656 165.5859375 C511.49431594 172.56291461 511.5173057 179.53936574 511.55429029 186.51623619 C511.5850287 192.53530807 511.59634371 198.55421086 511.59245348 204.57335961 C511.59039339 208.1562044 511.59575229 211.73863766 511.62034607 215.32140732 C511.6468384 219.31081697 511.63285423 223.29911548 511.61523438 227.28857422 C511.62849762 228.46276413 511.64176086 229.63695404 511.65542603 230.84672546 C511.58359533 237.8512507 510.64044991 242.61320269 506 248 C500.24914071 253.33006471 495.79077779 254.51502547 488.046875 254.3828125 C482.0978667 253.635373 478.49311006 250.64624955 474.5625 246.3125 C472.26547353 242.91290082 471.87153962 241.13063667 471.84851074 237.05870056 C471.84016708 236.01404129 471.83182343 234.96938202 471.82322693 233.89306641 C471.81904251 232.74233643 471.81485809 231.59160645 471.81054688 230.40600586 C471.80225357 229.19787735 471.79396027 227.98974884 471.78541565 226.74501038 C471.76798431 224.1149312 471.75233535 221.48491041 471.73963928 218.85481071 C471.7194459 214.69992425 471.69179094 210.54510834 471.66296387 206.39027405 C471.59772276 196.82184835 471.54229629 187.25337041 471.48697662 177.68488312 C471.43617577 168.91417049 471.38333123 160.14348348 471.32245111 151.37283427 C471.29403917 147.23851223 471.27046624 143.10419873 471.25052643 138.96982753 C471.23404524 135.80139259 471.21123449 132.63300189 471.18945312 129.46459961 C471.18526871 128.3118454 471.18108429 127.15909119 471.17677307 125.97140503 C471.16842941 124.92956558 471.16008575 123.88772614 471.15148926 122.8143158 C471.14633553 121.90341659 471.14118179 120.99251738 471.13587189 120.05401516 C471.22703948 118.00740878 471.22703948 118.00740878 470 117 C469.75248024 115.35682664 469.52742439 113.71025369 469.3125 112.0625 C467.40018887 101.08811747 460.71389995 93.53542496 452 87 C442.07504945 80.20924436 429.54773863 80.80941766 418 80.4375 C416.12248047 80.37272461 416.12248047 80.37272461 414.20703125 80.30664062 C411.13811477 80.20121983 408.06912611 80.09909658 405 80 C405.02618408 80.74572266 405.05236816 81.49144531 405.0793457 82.25976562 C405.18395551 85.67295858 405.24852969 89.08581328 405.3125 92.5 C405.35439453 93.67304687 405.39628906 94.84609375 405.43945312 96.0546875 C405.54230108 103.37746203 404.94831807 108.40459418 400 114 C394.24914071 119.33006471 389.79077779 120.51502547 382.046875 120.3828125 C376.11725486 119.63780894 372.52854372 116.646124 368.5625 112.375 C362.41622949 103.03266883 365.45885071 92.93011852 365 81 C334.97 80.67 304.94 80.34 274 80 C274 88.58 274 97.16 274 106 C267.11544228 117.01529235 267.11544228 117.01529235 260 120 C253.19430024 120.92363068 247.31137815 120.71791796 241.6875 116.546875 C235.83356545 111.18076833 235.04012728 108.32101826 234 100 C234 93.73 234 87.46 234 81 C204.3 80.67 174.6 80.34 144 80 C144 88.58 144 97.16 144 106 C137.11544228 117.01529235 137.11544228 117.01529235 130 120 C123.07460456 120.93987509 117.31187673 120.65954486 111.6171875 116.40625 C106.06222211 111.57584531 104.64786598 107.18466759 104 100 C103.78703187 93.33463654 103.87385283 86.66639269 104 80 C99.89535024 80.11143845 95.79149275 80.24168134 91.6875 80.375 C90.53958984 80.4059375 89.39167969 80.436875 88.20898438 80.46875 C78.5274817 80.79786624 69.20519384 81.33919196 60.5 85.9375 C59.5203125 86.44152344 58.540625 86.94554688 57.53125 87.46484375 C55.29519181 88.82097163 53.80665841 90.15478486 52 92 C51.34 92 50.68 92 50 92 C49.731875 92.54527344 49.46375 93.09054688 49.1875 93.65234375 C48.34097231 95.32590672 47.46228983 96.9833667 46.5625 98.62890625 C46.046875 99.59699219 45.53125 100.56507812 45 101.5625 C44.2265625 102.98755859 44.2265625 102.98755859 43.4375 104.44140625 C39.83371021 113.36274457 39.71017433 122.66751892 39.74603271 132.16943359 C39.74135274 134.09524293 39.74135274 134.09524293 39.73657823 136.0599575 C39.72828785 139.59399832 39.73232905 143.12793007 39.73855066 146.66197109 C39.74309791 150.48479867 39.73608017 154.3076082 39.73059082 158.13043213 C39.72171934 165.60767749 39.7236088 173.08488259 39.7294161 180.5621295 C39.73394144 186.6415817 39.73454173 192.72102267 39.73236847 198.80047607 C39.732062 199.66727316 39.73175554 200.53407025 39.73143978 201.42713392 C39.7308003 203.188272 39.73015188 204.94941008 39.7294946 206.71054816 C39.72379788 223.20666772 39.73033886 239.70276501 39.74109533 256.19888091 C39.75003024 270.33897863 39.74847802 284.4790435 39.73925781 298.61914062 C39.72854355 315.05811669 39.72434714 331.49707326 39.73048234 347.93605232 C39.73111941 349.69054285 39.73174815 351.44503339 39.73236847 353.19952393 C39.73267702 354.06266185 39.73298557 354.92579978 39.73330347 355.8150934 C39.73502694 361.8839562 39.73212282 367.9528066 39.72740936 374.02166748 C39.72178767 381.42227555 39.72334401 388.82284122 39.73397085 396.22344446 C39.73921025 399.99595376 39.74131398 403.76839248 39.73467255 407.54090118 C39.72756985 411.63751713 39.73607741 415.7339564 39.74603271 419.83056641 C39.73934055 421.60388619 39.73934055 421.60388619 39.73251319 423.41303062 C39.79437519 436.56595869 41.76128137 448.44786692 50.375 458.875 C51.24125 459.57625 52.1075 460.2775 53 461 C53.59683594 461.50015625 54.19367187 462.0003125 54.80859375 462.515625 C66.69550577 472.0622288 80.85147677 472.30488015 95.53393555 472.16357422 C97.06935224 472.15644681 98.60477363 472.15027902 100.14019775 472.14498901 C103.42494545 472.13197153 106.70958075 472.11290962 109.99426842 472.08919907 C115.19348586 472.05236981 120.3926774 472.0333528 125.59199524 472.0173645 C140.36914777 471.96923964 155.14613578 471.89723104 169.9230957 471.80810547 C178.10087335 471.75893896 186.27858787 471.72426139 194.45649177 471.70498669 C199.62026568 471.6919432 204.78351447 471.6609199 209.94710767 471.61635184 C213.16186721 471.59282009 216.37650087 471.58615306 219.59133911 471.58415604 C221.07641574 471.57987761 222.56149169 471.56875117 224.04645729 471.5500946 C240.04593805 471.35692875 240.04593805 471.35692875 246.50675488 477.4121685 C251.39835055 482.86536166 252.51713708 488.09173478 252.3828125 495.2109375 C251.60221576 500.89814235 248.54643 504.56672342 244.4375 508.375 C239.77292102 511.48471932 236.87569497 512.25187492 231.17279053 512.26742554 C230.48645798 512.27195665 229.80012543 512.27648776 229.09299493 512.28115618 C226.79337346 512.29381481 224.4939884 512.29217882 222.19433594 512.29052734 C220.54484757 512.29651224 218.89536201 512.30331769 217.24588013 512.31088257 C212.76169967 512.3285673 208.27759555 512.33323937 203.7933836 512.33451414 C200.98643642 512.33593646 198.17950859 512.34020788 195.37256622 512.34550858 C185.56346916 512.36402658 175.75442646 512.37217817 165.9453125 512.37060547 C156.83185854 512.36940797 147.71864292 512.3904285 138.60524917 512.4220928 C130.76293388 512.44835986 122.92069582 512.45896821 115.07833695 512.45769465 C110.40304845 512.45718748 105.72797108 512.46273191 101.05272675 512.48405075 C96.6432851 512.50360601 92.23425195 512.50344123 87.82479477 512.48901749 C86.21894856 512.48694855 84.61307564 512.49151381 83.00727463 512.5037384 C69.23252951 512.60168368 55.85863948 510.85112195 43.5625 504.125 C42.90636719 503.78130371 42.25023437 503.43760742 41.57421875 503.08349609 C30.89789506 497.39983069 30.89789506 497.39983069 27 494 C27 493.34 27 492.68 27 492 C26.12794922 491.62681641 26.12794922 491.62681641 25.23828125 491.24609375 C13.77141892 484.86227336 6.21131524 468.37729103 2.13670653 456.47911572 C-0.48887817 447.17052414 -0.41135432 438.17077412 -0.36076355 428.58709717 C-0.36207351 426.7329534 -0.36470344 424.87881017 -0.36853105 423.02466989 C-0.37521045 417.95520662 -0.36327849 412.88593501 -0.34819686 407.81649613 C-0.33520393 402.34017353 -0.33962826 396.86386115 -0.34190369 391.38752747 C-0.34347436 381.90787967 -0.33408665 372.42829398 -0.31719017 362.9486618 C-0.29277686 349.24282709 -0.28499251 335.53702231 -0.2812262 321.8311682 C-0.27466538 299.59267046 -0.25474006 277.35420169 -0.22631836 255.11572266 C-0.19874635 233.51709159 -0.17750469 211.91846937 -0.16479492 190.31982422 C-0.16440034 189.65355954 -0.16400576 188.98729486 -0.16359923 188.30084034 C-0.159251 180.94571357 -0.15507553 173.59058671 -0.15097082 166.2354598 C-0.11988641 110.82361703 -0.06706065 55.4118101 0 0 Z " fill="#FDDFBC" transform="translate(0,0)"/>
<path d="M0 0 C0 0.66 0 1.32 0 2 C0.53882813 1.79375 1.07765625 1.5875 1.6328125 1.375 C12.67051663 -0.37354719 29.16618815 11.41828249 38.125 17.75 C65.47276178 37.67664635 83.31092067 66.36728523 88.60522461 99.78051758 C92.66412326 132.8817523 84.50334013 165.24970811 63.98046875 191.51171875 C63.32691406 192.33285156 62.67335938 193.15398437 62 194 C61.45988281 194.76957031 60.91976562 195.53914062 60.36328125 196.33203125 C59.91339844 196.88246094 59.46351563 197.43289063 59 198 C58.34 198 57.68 198 57 198 C56.58814453 198.89525391 56.58814453 198.89525391 56.16796875 199.80859375 C47.32961369 216.39159438 21.62624055 227.7335764 4.63891602 233.10131836 C2.43242945 233.76058937 0.22016664 234.38852422 -2 235 C-3.22332031 235.3403125 -4.44664062 235.680625 -5.70703125 236.03125 C-36.11897381 243.02696842 -68.60208287 236.90608838 -95.21826172 221.11816406 C-100.46981125 217.82245334 -105.25044339 213.97213558 -110 210 C-110.94617188 209.21882812 -111.89234375 208.43765625 -112.8671875 207.6328125 C-137.51200052 186.33913553 -150.50634215 156.05662793 -153 124 C-153.75085365 105.9035591 -150.69689093 87.7747365 -144 71 C-143.34 71 -142.68 71 -142 71 C-140.92711898 67.85799131 -139.95861331 64.81031098 -139.25 61.5625 C-137.90239796 57.72183419 -136.34733837 55.87273198 -133.640625 52.94921875 C-131.79472877 50.75611823 -130.42800431 48.48397591 -129 46 C-125.18543815 39.4365633 -120.42723407 34.28055207 -115 29 C-114.505 28.46375 -114.01 27.9275 -113.5 27.375 C-111.52374492 25.56343284 -109.30182628 24.37013469 -107 23 C-106.154375 22.319375 -105.30875 21.63875 -104.4375 20.9375 C-102.32011864 19.25445328 -100.39351196 18.19675598 -98 17 C-97.67 16.34 -97.34 15.68 -97 15 C-96.01 15 -95.02 15 -94 15 C-94 14.34 -94 13.68 -94 13 C-78.85375494 5 -78.85375494 5 -73 5 C-72.67 4.34 -72.34 3.68 -72 3 C-71.01 3.495 -71.01 3.495 -70 4 C-69.67 3.34 -69.34 2.68 -69 2 C-67.02 2 -65.04 2 -63 2 C-62.67 1.34 -62.34 0.68 -62 0 C-61.01 0.33 -60.02 0.66 -59 1 C-58.67 0.34 -58.34 -0.32 -58 -1 C-57.01 -0.67 -56.02 -0.34 -55 0 C-55 -0.66 -55 -1.32 -55 -2 C-36.94890809 -5.02200642 -17.61458985 -5.87152995 0 0 Z " fill="#FADDBA" transform="translate(422,274)"/>
<path d="M0 0 C0 0.66 0 1.32 0 2 C0.99 2.33 1.98 2.66 3 3 C16.13870085 16.34601763 25.49071488 35.06095948 26 54 C26.061875 55.04542969 26.12375 56.09085937 26.1875 57.16796875 C26.87784612 77.29587274 21.79442374 97.83979173 8 113 C7.47664062 113.51691406 6.95328125 114.03382813 6.4140625 114.56640625 C4.80849606 116.11358905 4.80849606 116.11358905 3.125 118.6875 C-1.50575268 124.33786794 -9.47945541 128.89905957 -16.34765625 131.046875 C-17.22292969 131.36140625 -18.09820312 131.6759375 -19 132 C-19.33 132.99 -19.66 133.98 -20 135 C-22.6875 136.0625 -22.6875 136.0625 -26 137 C-26.92554688 137.32613281 -27.85109375 137.65226563 -28.8046875 137.98828125 C-47.02293716 143.75665125 -70.57937862 142.63978652 -88.0625 134.578125 C-96.8255303 129.87032681 -106.32871413 124.47929876 -113 117 C-113 116.34 -113 115.68 -113 115 C-113.66 115 -114.32 115 -115 115 C-128.89198856 99.60793755 -136.16797531 78.51398504 -136 58 C-134.91488762 38.29358401 -127.96611257 20.09792838 -115 5 C-114.34 5 -113.68 5 -113 5 C-113 4.34 -113 3.68 -113 3 C-81.61319845 -26.13087519 -32.72781104 -29.53823624 0 0 Z " fill="#FEFEFE" transform="translate(445,331)"/>
<path d="M0 0 C39.93 0 79.86 0 121 0 C118.4345406 2.5654594 116.52313332 2.54046087 113 3 C113 3.66 113 4.32 113 5 C112.01 5.33 111.02 5.66 110 6 C109.67 6.99 109.34 7.98 109 9 C108.34 9 107.68 9 107 9 C104.24463446 19.50483112 104.8051558 30.23710623 105 41 C101.57426063 41.77528479 98.42760755 42.11918778 94.91796875 42.09765625 C93.98662109 42.09443359 93.05527344 42.09121094 92.09570312 42.08789062 C91.13599609 42.07951172 90.17628906 42.07113281 89.1875 42.0625 C88.20845703 42.05798828 87.22941406 42.05347656 86.22070312 42.04882812 C83.81373889 42.03708684 81.40690143 42.02066419 79 42 C79 41.34 79 40.68 79 40 C76.69 40 74.38 40 72 40 C72 40.66 72 41.32 72 42 C70.9171875 41.9690625 70.9171875 41.9690625 69.8125 41.9375 C67.00141177 41.91411357 67.00141177 41.91411357 64.3125 42.5625 C62 43 62 43 60 42 C60 42.66 60 43.32 60 44 C53.33333333 46 46.66666667 48 40 50 C40 50.66 40 51.32 40 52 C37.525 52.495 37.525 52.495 35 53 C34.67 53.99 34.34 54.98 34 56 C33.34 56 32.68 56 32 56 C31.67 56.66 31.34 57.32 31 58 C30.4225 58.2475 29.845 58.495 29.25 58.75 C26.60915196 60.2171378 25.08758975 62.13420434 23.2265625 64.48046875 C21.19642043 66.99551737 18.91036592 69.23529263 16.4375 71.3125 C14.7339902 73.14353269 14.7339902 73.14353269 13.5 76.5 C12.11137646 79.74012159 11.34789005 80.66411962 9 83 C4.91462779 90.03678178 3.08465904 98.20470583 1 106 C0.67 106 0.34 106 0 106 C0 71.02 0 36.04 0 0 Z " fill="#FEFEFE" transform="translate(0,0)"/>
<path d="M0 0 C41.25 0 82.5 0 125 0 C120 4 120 4 116.4375 5.0625 C112.03379908 7.54458597 111.14981514 9.47340726 109.640625 14.19921875 C108.31525172 22.06256147 108.76193004 30.09668507 109.05004883 38.04150391 C109 40 109 40 108 41 C105.20547729 41.10051875 102.43563645 41.13615894 99.640625 41.12939453 C98.76426392 41.13114685 97.88790283 41.13289917 96.98498535 41.13470459 C94.07330373 41.13912432 91.1616823 41.13618469 88.25 41.1328125 C86.23600248 41.1334855 84.22200505 41.1344555 82.20800781 41.13571167 C77.98111195 41.13718881 73.75423717 41.13503358 69.52734375 41.13037109 C64.09619468 41.1246738 58.66509501 41.12795272 53.23394775 41.13394356 C49.07340113 41.13754874 44.91286631 41.13641078 40.75231934 41.13381577 C38.74914545 41.13314638 36.74597051 41.13397533 34.74279785 41.13629532 C31.94829448 41.13882115 29.15387229 41.13498224 26.359375 41.12939453 C25.10477478 41.13243088 25.10477478 41.13243088 23.8248291 41.13552856 C18.11426242 41.11426242 18.11426242 41.11426242 17 40 C16.90272096 38.16734587 16.86796214 36.33130781 16.859375 34.49609375 C16.83037109 32.79549805 16.83037109 32.79549805 16.80078125 31.06054688 C16.76731265 28.67269101 16.74872816 26.28457333 16.74609375 23.89648438 C16.5653851 15.46499923 15.12933123 10.12933123 9.125 4.125 C6.2008868 2.57694007 3.1992033 1.79980082 0 1 C0 0.67 0 0.34 0 0 Z " fill="#FEFEFE" transform="translate(257,0)"/>
<path d="M0 0 C4.55206125 3.90176679 8.37657803 8.04134983 8.85205078 14.18261719 C8.84157715 15.29282227 8.83110352 16.40302734 8.8203125 17.546875 C8.81386719 18.75214844 8.80742187 19.95742188 8.80078125 21.19921875 C8.78402344 22.45347656 8.76726562 23.70773437 8.75 25 C8.74097656 26.26972656 8.73195313 27.53945313 8.72265625 28.84765625 C8.69909005 31.98196093 8.66618832 35.11588541 8.625 38.25 C10.11398804 38.1878833 10.11398804 38.1878833 11.63305664 38.12451172 C18.80026841 37.86895149 24.81752764 37.66589349 30.625 42.25 C35.46086131 46.89938851 37.9147783 51.29169702 38.0625 58 C37.96001064 64.0029484 36.58901328 67.76611612 32.625 72.25 C28.67245416 75.91333517 25.00997686 78.47260916 19.53417969 78.55639648 C18.73945251 78.57238388 17.94472534 78.58837128 17.12591553 78.60484314 C16.27483215 78.61020584 15.42374878 78.61556854 14.546875 78.62109375 C13.66147034 78.63012222 12.77606567 78.6391507 11.86383057 78.64845276 C9.99112319 78.66294647 8.11836528 78.67183982 6.24560547 78.67553711 C3.39853075 78.68740194 0.55364673 78.73656753 -2.29296875 78.78710938 C-4.11717698 78.7965781 -5.94139846 78.80381099 -7.765625 78.80859375 C-8.60861145 78.82812607 -9.4515979 78.84765839 -10.32012939 78.86778259 C-16.52456552 78.8210748 -20.53123237 77.11578043 -25.375 73.25 C-31.61280531 66.84804191 -31.68354367 59.91012646 -31.67578125 51.4453125 C-31.68006638 50.40736542 -31.6843515 49.36941833 -31.68876648 48.30001831 C-31.69449581 46.10968758 -31.69502037 43.91933782 -31.69067383 41.72900391 C-31.68751724 38.39322135 -31.71097957 35.0583291 -31.73632812 31.72265625 C-31.73860172 29.58854278 -31.73930434 27.45442694 -31.73828125 25.3203125 C-31.747491 24.3304837 -31.75670074 23.34065491 -31.76618958 22.3208313 C-31.72614068 16.27037311 -30.97400665 11.74322255 -28.375 6.25 C-25.875 3.9375 -25.875 3.9375 -23.375 2.25 C-22.92125 1.71375 -22.4675 1.1775 -22 0.625 C-15.9316935 -4.50972089 -6.57625722 -3.40991115 0 0 Z " fill="#FBDEBB" transform="translate(401.375,332.75)"/>
<path d="M0 0 C40.59 0 81.18 0 123 0 C121 2 121 2 117.5625 3.375 C114.04023092 4.98164905 113.0398191 5.88659189 111 9 C110.34 9 109.68 9 109 9 C108.67 11.31 108.34 13.62 108 16 C107.34 16 106.68 16 106 16 C106.24339111 16.84365112 106.24339111 16.84365112 106.49169922 17.7043457 C107.02645203 20.11946613 107.12937349 22.25904783 107.1328125 24.73046875 C107.13410156 25.61541016 107.13539063 26.50035156 107.13671875 27.41210938 C107.13285156 28.32798828 107.12898438 29.24386719 107.125 30.1875 C107.12886719 31.11498047 107.13273437 32.04246094 107.13671875 32.99804688 C107.13542969 33.87912109 107.13414062 34.76019531 107.1328125 35.66796875 C107.13168457 36.47516357 107.13055664 37.2823584 107.12939453 38.11401367 C107 40 107 40 106 41 C103.23598592 41.10050214 100.49692774 41.13616075 97.73242188 41.12939453 C96.4325106 41.13202301 96.4325106 41.13202301 95.1063385 41.13470459 C92.22712227 41.13912425 89.34796691 41.13618472 86.46875 41.1328125 C84.47717273 41.13348551 82.48559554 41.1344555 80.49401855 41.13571167 C76.31420105 41.1371888 72.13440487 41.13503361 67.95458984 41.13037109 C62.58397474 41.1246738 57.2134096 41.12795273 51.84279633 41.13394356 C47.7285728 41.13754877 43.61436121 41.13641077 39.50013733 41.13381577 C37.51929214 41.13314639 35.53844588 41.1339753 33.55760193 41.13629532 C30.79423124 41.13882119 28.03094266 41.13498218 25.26757812 41.12939453 C24.44052872 41.13141876 23.61347931 41.13344299 22.7613678 41.13552856 C17.11426244 41.11426244 17.11426244 41.11426244 16 40 C15.90272096 38.16734587 15.86796214 36.33130781 15.859375 34.49609375 C15.84003906 33.36236328 15.82070312 32.22863281 15.80078125 31.06054688 C15.76731265 28.67269101 15.74872816 26.28457333 15.74609375 23.89648438 C15.56581121 15.48488075 14.17316163 10.03854351 8.0625 4.125 C5.46658236 2.70904492 2.83055173 1.83629938 0 1 C0 0.67 0 0.34 0 0 Z " fill="#FEFEFE" transform="translate(128,0)"/>
<path d="M0 0 C4.50007979 3.85721125 8.1815268 7.98230275 8.99609375 13.984375 C9.15317907 21.11789653 8.42142728 25.82453308 3.625 31.25 C-2.12585929 36.58006471 -6.58422221 37.76502547 -14.328125 37.6328125 C-20.18472565 36.89698319 -23.73563146 33.93250982 -27.75 29.8125 C-31.84290085 23.3583102 -31.75303862 17.60694811 -30.375 10.25 C-28.82012516 6.41373675 -26.66613712 4.73842075 -23.375 2.25 C-22.92125 1.71375 -22.4675 1.1775 -22 0.625 C-15.9316935 -4.50972089 -6.57625722 -3.40991115 0 0 Z " fill="#F5DAB9" transform="translate(135.375,192.75)"/>
<path d="M0 0 C4.14681316 3.78980276 7.60136796 8.0627113 8.37109375 13.734375 C8.52817907 20.86789653 7.79642728 25.57453308 3 31 C-2.75085929 36.33006471 -7.20922221 37.51502547 -14.953125 37.3828125 C-20.79433114 36.64891737 -24.32129615 33.67870385 -28.375 29.625 C-31.73572239 24.19614076 -32.60685374 18.8949394 -31.79296875 12.6328125 C-30.05377099 6.85833323 -26.03855576 1.90485219 -20.9375 -1.29296875 C-13.93953997 -4.20422946 -6.55707825 -3.80390341 0 0 Z " fill="#F5DAB9" transform="translate(136,367)"/>
<path d="M0 0 C4.50007979 3.85721125 8.1815268 7.98230275 8.99609375 13.984375 C9.15317907 21.11789653 8.42142728 25.82453308 3.625 31.25 C-2.12585929 36.58006471 -6.58422221 37.76502547 -14.328125 37.6328125 C-20.18472565 36.89698319 -23.73563146 33.93250982 -27.75 29.8125 C-31.57891827 23.77459042 -31.64778566 19.06674627 -30.375 12.25 C-29.21975717 7.1476775 -27.61569318 5.24951469 -23.375 2.25 C-22.92125 1.71375 -22.4675 1.1775 -22 0.625 C-15.9316935 -4.50972089 -6.57625722 -3.40991115 0 0 Z " fill="#F5DAB8" transform="translate(396.375,192.75)"/>
<path d="M0 0 C6.59273281 -0.5493944 11.52911637 0.10587759 17 4 C20.77101007 7.57958824 23.66448003 11.52774762 24.37109375 16.734375 C24.52817907 23.86789653 23.79642728 28.57453308 19 34 C13.48072747 39.11542332 9.24795861 40.47095645 1.8203125 40.3125 C-3.84594631 39.68465969 -8.066543 37.33201645 -11.875 33.125 C-16.40988551 26.45605072 -16.45611935 20.77379848 -15 13 C-13.15790916 8.1322527 -9.30792333 5.66053391 -5 3 C-2 2.125 -2 2.125 0 2 C0 1.34 0 0.68 0 0 Z " fill="#F5D9B8" transform="translate(120,277)"/>
<path d="M0 0 C4.09142935 2.80211338 6.97416309 6.69624178 8.859375 11.2734375 C9.80056185 18.20849851 9.49482546 23.9297592 5.2890625 29.65625 C1.64884279 33.77387557 -2.36384816 36.89658921 -7.875 37.64453125 C-15.02178695 37.80190868 -19.69780917 37.05890842 -25.140625 32.2734375 C-29.10906621 28.20056362 -31.01730652 24.10976259 -31.265625 18.3984375 C-31.224375 17.6971875 -31.183125 16.9959375 -31.140625 16.2734375 C-30.480625 16.2734375 -29.820625 16.2734375 -29.140625 16.2734375 C-29.24375 15.0565625 -29.346875 13.8396875 -29.453125 12.5859375 C-29.47250159 8.93022072 -29.28204007 8.44090271 -26.765625 5.4609375 C-25.899375 4.7390625 -25.033125 4.0171875 -24.140625 3.2734375 C-23.480625 2.2834375 -22.820625 1.2934375 -22.140625 0.2734375 C-14.63149977 -3.44289128 -7.42150222 -4.05593726 0 0 Z " fill="#F5DAB8" transform="translate(309.140625,192.7265625)"/>
<path d="M0 0 C6.35469231 -0.45390659 10.71636904 0.31164092 16 4 C19.7738417 7.57320707 22.66497818 11.5314182 23.37109375 16.734375 C23.52817907 23.86789653 22.79642728 28.57453308 18 34 C12.24914071 39.33006471 7.79077779 40.51502547 0.046875 40.3828125 C-5.88274514 39.63780894 -9.47145628 36.646124 -13.4375 32.375 C-16.81100474 27.24727279 -16.33165625 21.92729245 -16 16 C-14.84012806 10.78057627 -12.68916952 6.94013143 -8.2890625 3.765625 C-6.4375 2.625 -6.4375 2.625 -3 1 C-2.01 1.33 -1.02 1.66 0 2 C0 1.34 0 0.68 0 0 Z " fill="#F6DAB8" transform="translate(208,277)"/>
<path d="M0 0 C4.50007979 3.85721125 8.1815268 7.98230275 8.99609375 13.984375 C9.15317907 21.11789653 8.42142728 25.82453308 3.625 31.25 C-2.12239774 36.57685645 -6.58793634 37.78144651 -14.33203125 37.62109375 C-19.89061649 36.9432175 -23.23507507 34.5625839 -26.97265625 30.5234375 C-30.40148028 25.88163115 -31.07728732 21.63361272 -30.80078125 15.9296875 C-30.14708795 11.81561771 -28.63689553 8.70983323 -26.375 5.25 C-25.818125 4.321875 -25.26125 3.39375 -24.6875 2.4375 C-17.90487555 -3.9784961 -8.02060228 -4.15883081 0 0 Z " fill="#F6DAB8" transform="translate(222.375,192.75)"/>
<path d="M0 0 C6.39142398 0.25262545 10.96267428 0.68229224 16 5 C21.27423198 10.86025776 22.5162727 15.13617045 22.3828125 22.953125 C21.64270306 28.84379198 18.68676771 32.43665432 14.4375 36.375 C8.37581489 40.41612341 3.24795597 40.92803534 -4 40 C-7.04962479 38.73942377 -9.49834421 37.13997061 -12 35 C-12.78697266 34.32904297 -12.78697266 34.32904297 -13.58984375 33.64453125 C-17.39816122 29.20325243 -17.36976605 24.29145026 -17.25 18.71484375 C-16.64189177 12.11116848 -13.35149048 7.68622052 -9 3 C-6.04335481 1.5216774 -3.25770263 1.93967217 0 2 C0 1.34 0 0.68 0 0 Z " fill="#F6DAB8" transform="translate(209,364)"/>
<path d="M0 0 C0.66 0 1.32 0 2 0 C0.67654456 2.95278501 -0.7744048 4.89478327 -3.0703125 7.15234375 C-6.77213714 11.37287391 -6.89212045 15.11391739 -6.875 20.5625 C-6.895625 21.38685547 -6.91625 22.21121094 -6.9375 23.06054688 C-6.98929641 25.37473657 -7.00313431 27.6853094 -7 30 C-7.00257812 31.18464844 -7.00515625 32.36929688 -7.0078125 33.58984375 C-7.00523438 34.38519531 -7.00265625 35.18054687 -7 36 C-7.33 36 -7.66 36 -8 36 C-10.22844855 26.67617126 -10.36594225 14.73188451 -6 6 C-5.34 6 -4.68 6 -4 6 C-3.67 4.68 -3.34 3.36 -3 2 C-2.01 2 -1.02 2 0 2 C0 1.34 0 0.68 0 0 Z " fill="#FBE9D3" transform="translate(113,3)"/>
<path d="M0 0 C-1.3584202 3.04332765 -2.88463024 5.12309151 -5.2578125 7.453125 C-5.88300781 8.071875 -6.50820313 8.690625 -7.15234375 9.328125 C-7.80332031 9.96234375 -8.45429688 10.5965625 -9.125 11.25 C-9.78371094 11.8996875 -10.44242187 12.549375 -11.12109375 13.21875 C-12.74296643 14.81711727 -14.3693281 16.41061897 -16 18 C-16 14.51645795 -15.54964842 14.11572947 -13.3125 11.625 C-12.7659375 11.01398438 -12.219375 10.40296875 -11.65625 9.7734375 C-9.49259407 7.45669271 -7.27192516 5.21052178 -5 3 C-4.443125 2.401875 -3.88625 1.80375 -3.3125 1.1875 C-2 0 -2 0 0 0 Z " fill="#F8E5CF" transform="translate(312,300)"/>
<path d="M0 0 C0.66 0 1.32 0 2 0 C0.52278578 3.45201639 -1.43794001 5.64961936 -4.125 8.25 C-4.84945313 8.95640625 -5.57390625 9.6628125 -6.3203125 10.390625 C-6.87460937 10.92171875 -7.42890625 11.4528125 -8 12 C-8.99 11.67 -9.98 11.34 -11 11 C-10.45730469 10.54109375 -9.91460938 10.0821875 -9.35546875 9.609375 C-8.64003906 8.99578125 -7.92460937 8.3821875 -7.1875 7.75 C-6.47980469 7.14671875 -5.77210937 6.5434375 -5.04296875 5.921875 C-2.94002444 4.06082782 -2.94002444 4.06082782 -1.36328125 1.765625 C-0.91339844 1.18296875 -0.46351562 0.6003125 0 0 Z " fill="#F8E5CF" transform="translate(28,58)"/>
</svg>
